<svg xmlns="http://www.w3.org/2000/svg" viewBox="0 0 32 32">
  <rect width="32" height="32" rx="7" fill="#060608"/>
  <path d="M 16 3 A 13 13 0 0 1 27 14" stroke="#00E87A" stroke-width="3.5" stroke-linecap="round" fill="none"/>
  <path d="M 27 18 A 13 13 0 0 1 16 29" stroke="#00E87A" stroke-width="3.5" stroke-linecap="round" fill="none"/>
  <path d="M 16 7 A 9 9 0 0 1 23 14" stroke="#00E87A" stroke-width="2.5" stroke-linecap="round" fill="none" opacity="0.5"/>
  <path d="M 23 18 A 9 9 0 0 1 16 25" stroke="#00E87A" stroke-width="2.5" stroke-linecap="round" fill="none" opacity="0.5"/>
  <ellipse cx="17" cy="17" rx="5" ry="6" fill="#C8E6C9" opacity="0.9"/>
  <g stroke="#00E87A" stroke-width="1" fill="none">
    <line x1="5" y1="15" x2="14" y2="15"/>
    <line x1="5" y1="15" x2="5" y2="12"/><line x1="5" y1="12" x2="9" y2="12"/>
    <line x1="5" y1="15" x2="2" y2="15"/>
    <line x1="5" y1="15" x2="5" y2="18"/><line x1="5" y1="18" x2="9" y2="18"/>
  </g>
  <g fill="#00E87A">
    <circle cx="9" cy="12" r="1.2"/>
    <circle cx="9" cy="18" r="1.2"/>
    <circle cx="2" cy="15" r="1.2"/>
  </g>
</svg>
